<svg xmlns="http://www.w3.org/2000/svg" xmlns:xlink="http://www.w3.org/1999/xlink" width="150" zoomAndPan="magnify" viewBox="0 0 112.5 112.499997" height="150" preserveAspectRatio="xMidYMid meet" version="1.0"><defs><clipPath id="60cfb5d1d4"><path d="M 2.476562 1.832031 L 110 1.832031 L 110 109.351562 L 2.476562 109.351562 Z M 2.476562 1.832031 " clip-rule="nonzero"/></clipPath><clipPath id="49d08b55df"><path d="M 16 64 L 97 64 L 97 109.351562 L 16 109.351562 Z M 16 64 " clip-rule="nonzero"/></clipPath></defs><g clip-path="url(#60cfb5d1d4)"><path fill="#56d6da" d="M 110.167969 55.675781 C 110.167969 69.449219 105 82.015625 96.484375 91.535156 C 86.628906 102.574219 72.289062 109.519531 56.324219 109.519531 C 40.359375 109.519531 26.011719 102.574219 16.160156 91.535156 C 7.648438 82.015625 2.480469 69.449219 2.480469 55.675781 C 2.480469 25.941406 26.582031 1.832031 56.324219 1.832031 C 86.058594 1.832031 110.167969 25.941406 110.167969 55.675781 " fill-opacity="1" fill-rule="nonzero"/></g><path fill="#ffffff" d="M 56.324219 65.59375 C 66.082031 65.59375 74.96875 54.554688 74.96875 42.429688 C 74.96875 30.976562 72.753906 19.648438 56.324219 19.648438 C 39.890625 19.648438 37.671875 30.976562 37.671875 42.429688 C 37.671875 54.554688 46.5625 65.59375 56.324219 65.59375 " fill-opacity="1" fill-rule="nonzero"/><g clip-path="url(#49d08b55df)"><path fill="#ffffff" d="M 96.484375 91.535156 C 86.628906 102.574219 72.289062 109.519531 56.324219 109.519531 C 40.359375 109.519531 26.011719 102.574219 16.160156 91.535156 C 15.988281 84.886719 20.417969 69.476562 43.003906 64.734375 C 46.867188 68.679688 51.625 70.910156 56.324219 70.910156 C 61.019531 70.910156 65.773438 68.679688 69.636719 64.734375 C 92.226562 69.476562 96.652344 84.886719 96.484375 91.535156 " fill-opacity="1" fill-rule="nonzero"/></g></svg>