<svg xmlns="http://www.w3.org/2000/svg" xmlns:xlink="http://www.w3.org/1999/xlink" width="40" zoomAndPan="magnify" viewBox="0 0 30 30.000001" height="40" preserveAspectRatio="xMidYMid meet" version="1.0"><defs><clipPath id="0dda059d0f"><path d="M 0.484375 0 L 29.515625 0 L 29.515625 29.03125 L 0.484375 29.03125 Z M 0.484375 0 " clip-rule="nonzero"/></clipPath><clipPath id="3235066735"><path d="M 4 16 L 26 16 L 26 29.03125 L 4 29.03125 Z M 4 16 " clip-rule="nonzero"/></clipPath></defs><g clip-path="url(#0dda059d0f)"><path fill="#56d6da" d="M 29.515625 14.515625 C 29.515625 18.230469 28.125 21.617188 25.828125 24.183594 C 23.171875 27.160156 19.304688 29.035156 15 29.035156 C 10.695312 29.035156 6.828125 27.160156 4.171875 24.183594 C 1.878906 21.617188 0.484375 18.230469 0.484375 14.515625 C 0.484375 6.5 6.984375 0 15 0 C 23.019531 0 29.515625 6.5 29.515625 14.515625 " fill-opacity="1" fill-rule="nonzero"/></g><path fill="#ffffff" d="M 15 17.191406 C 17.632812 17.191406 20.027344 14.214844 20.027344 10.945312 C 20.027344 7.855469 19.429688 4.804688 15 4.804688 C 10.570312 4.804688 9.972656 7.855469 9.972656 10.945312 C 9.972656 14.214844 12.371094 17.191406 15 17.191406 " fill-opacity="1" fill-rule="nonzero"/><g clip-path="url(#3235066735)"><path fill="#ffffff" d="M 25.828125 24.183594 C 23.171875 27.160156 19.304688 29.035156 15 29.035156 C 10.695312 29.035156 6.828125 27.160156 4.171875 24.183594 C 4.125 22.390625 5.320312 18.238281 11.410156 16.960938 C 12.453125 18.023438 13.734375 18.625 15 18.625 C 16.265625 18.625 17.546875 18.023438 18.589844 16.960938 C 24.679688 18.238281 25.875 22.390625 25.828125 24.183594 " fill-opacity="1" fill-rule="nonzero"/></g></svg>